<mxfile host="app.diagrams.net" modified="2024-05-31T02:38:20.751Z" agent="Mozilla/5.0 (Windows NT 10.0; Win64; x64) AppleWebKit/537.36 (KHTML, like Gecko) Chrome/109.0.0.0 Safari/537.36 SLBrowser/9.0.3.1311 SLBChan/33" etag="r7Wx3TTBjc9eqgDsMhrB" version="24.4.4" type="github">
  <diagram id="prtHgNgQTEPvFCAcTncT" name="Page-1">
    <mxGraphModel dx="1221" dy="620" grid="1" gridSize="10" guides="1" tooltips="1" connect="1" arrows="1" fold="1" page="1" pageScale="1" pageWidth="827" pageHeight="1169" math="0" shadow="0">
      <root>
        <mxCell id="0" />
        <mxCell id="1" parent="0" />
        <mxCell id="dNxyNK7c78bLwvsdeMH5-11" value="Orgchart" style="swimlane;html=1;startSize=20;horizontal=1;containerType=tree;glass=0;" parent="1" vertex="1">
          <mxGeometry x="40" y="80" width="710" height="510" as="geometry" />
        </mxCell>
        <mxCell id="GLXtGMJpBH4eE2fFym7J-2" value="项目指导委员会" style="shape=process;whiteSpace=wrap;html=1;backgroundOutline=1;" vertex="1" parent="dNxyNK7c78bLwvsdeMH5-11">
          <mxGeometry x="280" y="30" width="120" height="60" as="geometry" />
        </mxCell>
        <mxCell id="GLXtGMJpBH4eE2fFym7J-3" value="项目经理_甲方" style="shape=process;whiteSpace=wrap;html=1;backgroundOutline=1;" vertex="1" parent="dNxyNK7c78bLwvsdeMH5-11">
          <mxGeometry x="280" y="120" width="120" height="60" as="geometry" />
        </mxCell>
        <mxCell id="GLXtGMJpBH4eE2fFym7J-4" value="业务用户_甲方" style="rounded=0;whiteSpace=wrap;html=1;" vertex="1" parent="dNxyNK7c78bLwvsdeMH5-11">
          <mxGeometry x="80" y="320" width="120" height="60" as="geometry" />
        </mxCell>
        <mxCell id="GLXtGMJpBH4eE2fFym7J-5" value="IT人员_甲方" style="rounded=0;whiteSpace=wrap;html=1;" vertex="1" parent="dNxyNK7c78bLwvsdeMH5-11">
          <mxGeometry x="280" y="320" width="120" height="60" as="geometry" />
        </mxCell>
        <mxCell id="GLXtGMJpBH4eE2fFym7J-6" value="业务经理_甲方" style="shape=process;whiteSpace=wrap;html=1;backgroundOutline=1;" vertex="1" parent="dNxyNK7c78bLwvsdeMH5-11">
          <mxGeometry x="80" y="220" width="120" height="60" as="geometry" />
        </mxCell>
        <mxCell id="GLXtGMJpBH4eE2fFym7J-7" value="IT经理_甲方" style="shape=process;whiteSpace=wrap;html=1;backgroundOutline=1;" vertex="1" parent="dNxyNK7c78bLwvsdeMH5-11">
          <mxGeometry x="280" y="220" width="120" height="60" as="geometry" />
        </mxCell>
        <mxCell id="GLXtGMJpBH4eE2fFym7J-8" value="项目经理_乙方" style="shape=process;whiteSpace=wrap;html=1;backgroundOutline=1;" vertex="1" parent="dNxyNK7c78bLwvsdeMH5-11">
          <mxGeometry x="480" y="220" width="120" height="60" as="geometry" />
        </mxCell>
        <mxCell id="GLXtGMJpBH4eE2fFym7J-9" value="项目助理_乙方" style="rounded=0;whiteSpace=wrap;html=1;" vertex="1" parent="dNxyNK7c78bLwvsdeMH5-11">
          <mxGeometry x="480" y="320" width="120" height="60" as="geometry" />
        </mxCell>
        <mxCell id="GLXtGMJpBH4eE2fFym7J-10" value="外部顾问_乙方" style="ellipse;whiteSpace=wrap;html=1;" vertex="1" parent="dNxyNK7c78bLwvsdeMH5-11">
          <mxGeometry x="70" y="425" width="120" height="80" as="geometry" />
        </mxCell>
        <mxCell id="GLXtGMJpBH4eE2fFym7J-11" value="业务配合人员_乙方" style="ellipse;whiteSpace=wrap;html=1;" vertex="1" parent="dNxyNK7c78bLwvsdeMH5-11">
          <mxGeometry x="280" y="425" width="120" height="80" as="geometry" />
        </mxCell>
        <mxCell id="GLXtGMJpBH4eE2fFym7J-12" value="系统管理员_项目组成员" style="ellipse;whiteSpace=wrap;html=1;" vertex="1" parent="dNxyNK7c78bLwvsdeMH5-11">
          <mxGeometry x="490" y="425" width="120" height="80" as="geometry" />
        </mxCell>
        <mxCell id="GLXtGMJpBH4eE2fFym7J-13" value="" style="edgeStyle=orthogonalEdgeStyle;rounded=0;orthogonalLoop=1;jettySize=auto;html=1;" edge="1" source="GLXtGMJpBH4eE2fFym7J-2" target="GLXtGMJpBH4eE2fFym7J-14" parent="dNxyNK7c78bLwvsdeMH5-11">
          <mxGeometry relative="1" as="geometry" />
        </mxCell>
        <mxCell id="GLXtGMJpBH4eE2fFym7J-14" value="项目指导委员会" style="shape=process;whiteSpace=wrap;html=1;backgroundOutline=1;" vertex="1" parent="dNxyNK7c78bLwvsdeMH5-11">
          <mxGeometry x="280" y="130" width="120" height="60" as="geometry" />
        </mxCell>
        <mxCell id="GLXtGMJpBH4eE2fFym7J-15" value="" style="edgeStyle=orthogonalEdgeStyle;rounded=0;orthogonalLoop=1;jettySize=auto;html=1;" edge="1" target="GLXtGMJpBH4eE2fFym7J-16" source="GLXtGMJpBH4eE2fFym7J-14" parent="dNxyNK7c78bLwvsdeMH5-11">
          <mxGeometry relative="1" as="geometry">
            <mxPoint x="380" y="170" as="sourcePoint" />
          </mxGeometry>
        </mxCell>
        <mxCell id="GLXtGMJpBH4eE2fFym7J-16" value="项目指导委员会" style="shape=process;whiteSpace=wrap;html=1;backgroundOutline=1;" vertex="1" parent="dNxyNK7c78bLwvsdeMH5-11">
          <mxGeometry x="280" y="230" width="120" height="60" as="geometry" />
        </mxCell>
        <mxCell id="GLXtGMJpBH4eE2fFym7J-19" value="" style="endArrow=classic;html=1;rounded=0;exitX=0;exitY=0.5;exitDx=0;exitDy=0;entryX=0.5;entryY=0;entryDx=0;entryDy=0;" edge="1" parent="dNxyNK7c78bLwvsdeMH5-11" source="GLXtGMJpBH4eE2fFym7J-14" target="GLXtGMJpBH4eE2fFym7J-6">
          <mxGeometry width="50" height="50" relative="1" as="geometry">
            <mxPoint x="350" y="270" as="sourcePoint" />
            <mxPoint x="400" y="220" as="targetPoint" />
            <Array as="points">
              <mxPoint x="140" y="160" />
            </Array>
          </mxGeometry>
        </mxCell>
        <mxCell id="GLXtGMJpBH4eE2fFym7J-20" value="" style="endArrow=classic;html=1;rounded=0;exitX=1;exitY=0.5;exitDx=0;exitDy=0;entryX=0.5;entryY=0;entryDx=0;entryDy=0;" edge="1" parent="dNxyNK7c78bLwvsdeMH5-11" source="GLXtGMJpBH4eE2fFym7J-14" target="GLXtGMJpBH4eE2fFym7J-8">
          <mxGeometry width="50" height="50" relative="1" as="geometry">
            <mxPoint x="610" y="140" as="sourcePoint" />
            <mxPoint x="470" y="180" as="targetPoint" />
            <Array as="points">
              <mxPoint x="540" y="160" />
            </Array>
          </mxGeometry>
        </mxCell>
        <mxCell id="GLXtGMJpBH4eE2fFym7J-25" value="" style="endArrow=classic;html=1;rounded=0;exitX=0.5;exitY=1;exitDx=0;exitDy=0;entryX=0.5;entryY=0;entryDx=0;entryDy=0;" edge="1" parent="dNxyNK7c78bLwvsdeMH5-11" source="GLXtGMJpBH4eE2fFym7J-6" target="GLXtGMJpBH4eE2fFym7J-4">
          <mxGeometry width="50" height="50" relative="1" as="geometry">
            <mxPoint x="260" y="280" as="sourcePoint" />
            <mxPoint x="400" y="220" as="targetPoint" />
          </mxGeometry>
        </mxCell>
        <mxCell id="GLXtGMJpBH4eE2fFym7J-26" value="" style="endArrow=classic;html=1;rounded=0;exitX=0.5;exitY=1;exitDx=0;exitDy=0;" edge="1" parent="dNxyNK7c78bLwvsdeMH5-11" source="GLXtGMJpBH4eE2fFym7J-16" target="GLXtGMJpBH4eE2fFym7J-5">
          <mxGeometry width="50" height="50" relative="1" as="geometry">
            <mxPoint x="150" y="290" as="sourcePoint" />
            <mxPoint x="150" y="330" as="targetPoint" />
          </mxGeometry>
        </mxCell>
        <mxCell id="GLXtGMJpBH4eE2fFym7J-27" value="" style="endArrow=classic;html=1;rounded=0;exitX=0.5;exitY=1;exitDx=0;exitDy=0;" edge="1" parent="dNxyNK7c78bLwvsdeMH5-11" source="GLXtGMJpBH4eE2fFym7J-8" target="GLXtGMJpBH4eE2fFym7J-9">
          <mxGeometry width="50" height="50" relative="1" as="geometry">
            <mxPoint x="160" y="300" as="sourcePoint" />
            <mxPoint x="160" y="340" as="targetPoint" />
          </mxGeometry>
        </mxCell>
        <mxCell id="GLXtGMJpBH4eE2fFym7J-28" value="" style="endArrow=classic;html=1;rounded=0;exitX=0.5;exitY=1;exitDx=0;exitDy=0;entryX=0.601;entryY=0.008;entryDx=0;entryDy=0;entryPerimeter=0;" edge="1" parent="dNxyNK7c78bLwvsdeMH5-11" source="GLXtGMJpBH4eE2fFym7J-4" target="GLXtGMJpBH4eE2fFym7J-10">
          <mxGeometry width="50" height="50" relative="1" as="geometry">
            <mxPoint x="170" y="310" as="sourcePoint" />
            <mxPoint x="170" y="350" as="targetPoint" />
          </mxGeometry>
        </mxCell>
        <mxCell id="GLXtGMJpBH4eE2fFym7J-29" value="" style="endArrow=classic;html=1;rounded=0;exitX=0.5;exitY=1;exitDx=0;exitDy=0;" edge="1" parent="dNxyNK7c78bLwvsdeMH5-11" source="GLXtGMJpBH4eE2fFym7J-5" target="GLXtGMJpBH4eE2fFym7J-11">
          <mxGeometry width="50" height="50" relative="1" as="geometry">
            <mxPoint x="180" y="320" as="sourcePoint" />
            <mxPoint x="180" y="360" as="targetPoint" />
          </mxGeometry>
        </mxCell>
        <mxCell id="GLXtGMJpBH4eE2fFym7J-30" value="" style="endArrow=classic;html=1;rounded=0;exitX=0.5;exitY=1;exitDx=0;exitDy=0;entryX=0.417;entryY=0.063;entryDx=0;entryDy=0;entryPerimeter=0;" edge="1" parent="dNxyNK7c78bLwvsdeMH5-11" source="GLXtGMJpBH4eE2fFym7J-9" target="GLXtGMJpBH4eE2fFym7J-12">
          <mxGeometry width="50" height="50" relative="1" as="geometry">
            <mxPoint x="190" y="330" as="sourcePoint" />
            <mxPoint x="190" y="370" as="targetPoint" />
          </mxGeometry>
        </mxCell>
      </root>
    </mxGraphModel>
  </diagram>
</mxfile>
